<svg id="Capa_1" enable-background="new 0 0 512 512" height="206" viewBox="0 0 512 512" width="206" xmlns="http://www.w3.org/2000/svg"><g><g><path d="m331.135 354.422c-21.729 16.615-47.71 25.397-75.135 25.397-68.274 0-123.82-55.545-123.82-123.82 0-27.425 8.782-53.406 25.397-75.134 2.516-3.29 1.889-7.997-1.402-10.513-3.288-2.516-7.996-1.889-10.513 1.402-18.633 24.367-28.482 53.499-28.482 84.246 0 76.545 62.274 138.82 138.82 138.82 30.747 0 59.879-9.849 84.246-28.482 3.29-2.516 3.918-7.224 1.402-10.514s-7.223-3.919-10.513-1.402z"/><path d="m256 117.18c-30.747 0-59.879 9.849-84.246 28.482-3.291 2.516-3.918 7.223-1.402 10.513 2.516 3.291 7.224 3.919 10.513 1.402 21.728-16.615 47.709-25.397 75.134-25.397 68.274 0 123.82 55.545 123.82 123.82 0 27.425-8.782 53.406-25.398 75.134-2.516 3.291-1.889 7.998 1.402 10.514 1.359 1.04 2.961 1.543 4.55 1.543 2.257 0 4.487-1.014 5.964-2.945 18.633-24.366 28.482-53.498 28.482-84.246.001-76.545-62.273-138.82-138.819-138.82z"/><path d="m496.854 222.095-53.647-7.556c-.235-.033-.423-.209-.476-.447-1.135-5.083-2.498-10.187-4.053-15.172-.073-.233.001-.479.188-.625l42.671-33.358c6.869-5.37 8.763-15.115 4.403-22.668l-16.476-28.536c-4.361-7.553-13.746-10.787-21.832-7.521l-50.264 20.29c-.22.089-.47.03-.637-.15-3.528-3.828-7.258-7.557-11.083-11.083-.181-.167-.239-.417-.15-.637l20.291-50.265c3.263-8.085.029-17.471-7.521-21.832l-28.536-16.475c-7.554-4.362-17.297-2.469-22.668 4.402l-33.36 42.671c-.146.188-.388.262-.626.188-4.971-1.551-10.075-2.915-15.169-4.052-.239-.053-.415-.241-.448-.476l-7.556-53.647c-1.216-8.634-8.709-15.146-17.429-15.146h-32.951c-8.72 0-16.213 6.512-17.43 15.147l-7.556 53.647c-.033.236-.209.423-.448.476-5.096 1.138-10.2 2.501-15.169 4.052-.235.072-.479 0-.626-.188l-33.359-42.671c-5.371-6.87-15.116-8.763-22.668-4.402l-28.536 16.475c-7.552 4.36-10.786 13.747-7.521 21.833l20.29 50.263c.089.221.03.471-.15.637-3.824 3.524-7.553 7.253-11.084 11.084-.165.18-.414.238-.636.149l-50.264-20.29c-8.087-3.265-17.473-.03-21.833 7.521l-16.475 28.535c-4.36 7.552-2.468 17.297 4.402 22.668l42.671 33.359c.188.146.261.393.188.626-1.551 4.97-2.914 10.074-4.052 15.169-.053.239-.24.415-.476.448l-53.647 7.556c-8.634 1.217-15.146 8.71-15.146 17.43v32.951c0 8.72 6.512 16.213 15.147 17.43l53.647 7.556c.236.033.423.209.476.448 1.138 5.096 2.501 10.2 4.052 15.169.073.234-.001.48-.188.627l-42.671 33.359c-6.87 5.371-8.763 15.116-4.402 22.668l16.475 28.536c4.36 7.552 13.745 10.785 21.833 7.521l50.264-20.29c.22-.087.47-.03.637.15 3.53 3.83 7.259 7.559 11.083 11.083.18.166.238.416.149.636l-20.29 50.263c-3.265 8.086-.031 17.472 7.521 21.833l28.536 16.475c7.553 4.36 17.297 2.468 22.668-4.402l33.36-42.672c.146-.187.389-.261.625-.188 4.97 1.551 10.074 2.914 15.169 4.052.239.053.415.24.448.476l7.556 53.647c1.216 8.635 8.709 15.147 17.43 15.147h32.951c8.721 0 16.214-6.512 17.43-15.147l7.556-53.646c.033-.236.209-.424.448-.477 5.094-1.138 10.198-2.501 15.169-4.052.235-.072.481.001.626.188l33.359 42.671c5.371 6.872 15.118 8.764 22.668 4.402l28.538-16.476c7.55-4.36 10.783-13.746 7.521-21.832l-20.291-50.263c-.089-.221-.03-.471.149-.637 3.826-3.527 7.556-7.256 11.085-11.085.167-.18.418-.236.636-.149l50.264 20.29c8.081 3.262 17.471.032 21.832-7.521l16.477-28.537c4.358-7.553 2.465-17.297-4.404-22.667l-42.671-33.359c-.188-.146-.262-.392-.188-.627 1.554-4.983 2.917-10.086 4.051-15.168.054-.239.241-.415.477-.448l53.647-7.556c8.635-1.216 15.146-8.709 15.146-17.43v-32.951c-.001-8.718-6.513-16.211-15.147-17.427zm.146 50.381c0 1.289-.962 2.396-2.238 2.576l-53.647 7.556c-6.384.899-11.617 5.734-13.023 12.033-1.046 4.681-2.301 9.382-3.731 13.969-1.921 6.151.196 12.948 5.269 16.913l42.671 33.359c1.016.793 1.295 2.234.651 3.35l-16.476 28.536c-.645 1.116-2.032 1.594-3.227 1.112l-50.264-20.29c-5.971-2.41-12.916-.846-17.281 3.893-3.253 3.529-6.692 6.968-10.222 10.221-4.736 4.367-6.301 11.312-3.893 17.28l20.291 50.263c.482 1.196.004 2.583-1.111 3.228l-28.539 16.475c-1.112.643-2.554.365-3.35-.651l-33.358-42.671c-3.965-5.07-10.759-7.187-16.911-5.27-4.579 1.429-9.279 2.684-13.972 3.732-6.297 1.406-11.132 6.64-12.032 13.023l-7.556 53.647c-.18 1.276-1.287 2.239-2.576 2.239h-32.951c-1.289 0-2.396-.962-2.576-2.239l-7.556-53.647c-.899-6.383-5.734-11.617-12.032-13.024-4.694-1.048-9.395-2.304-13.972-3.732-1.512-.472-3.063-.7-4.601-.7-4.72 0-9.321 2.145-12.31 5.969l-33.359 42.671c-.793 1.015-2.233 1.295-3.351.65l-28.536-16.475c-1.116-.645-1.594-2.032-1.112-3.227l20.29-50.263c2.41-5.97.845-12.915-3.893-17.281-3.526-3.25-6.964-6.688-10.22-10.22-4.366-4.739-11.312-6.303-17.281-3.894l-50.264 20.29c-1.196.484-2.583.004-3.227-1.112l-16.474-28.533c-.645-1.116-.365-2.557.65-3.351l42.671-33.359c5.071-3.964 7.188-10.76 5.27-16.912-1.428-4.577-2.684-9.277-3.732-13.971-1.407-6.298-6.641-11.133-13.024-12.032l-53.647-7.556c-1.276-.18-2.239-1.287-2.239-2.576v-32.951c0-1.289.962-2.396 2.239-2.576l53.647-7.556c6.383-.899 11.617-5.734 13.024-12.032 1.048-4.694 2.304-9.395 3.732-13.972 1.919-6.151-.199-12.947-5.27-16.911l-42.671-33.359c-1.015-.794-1.295-2.234-.65-3.351l16.475-28.536c.645-1.116 2.031-1.594 3.227-1.112l50.264 20.29c5.97 2.409 12.914.845 17.28-3.893 3.256-3.532 6.695-6.971 10.22-10.22 4.739-4.367 6.304-11.312 3.894-17.282l-20.29-50.263c-.482-1.195-.004-2.583 1.112-3.227l28.536-16.475c1.118-.645 2.558-.364 3.351.65l33.359 42.67c3.963 5.072 10.76 7.19 16.912 5.271 4.577-1.428 9.277-2.684 13.971-3.732 6.298-1.407 11.133-6.641 12.032-13.024l7.556-53.647c.18-1.276 1.287-2.239 2.576-2.239h32.951c1.289 0 2.396.962 2.576 2.239l7.556 53.648c.9 6.383 5.735 11.616 12.032 13.023 4.692 1.048 9.393 2.303 13.972 3.732 6.151 1.919 12.946-.199 16.911-5.27l33.359-42.671c.794-1.016 2.234-1.294 3.35-.65l28.536 16.475c1.116.645 1.595 2.033 1.112 3.228l-20.291 50.265c-2.408 5.968-.844 12.912 3.894 17.28 3.528 3.252 6.968 6.69 10.22 10.219 4.368 4.74 11.312 6.305 17.282 3.894l50.264-20.29c1.197-.482 2.582-.004 3.227 1.112l16.475 28.535c.645 1.117.365 2.558-.65 3.352l-42.671 33.359c-5.072 3.965-7.189 10.762-5.27 16.911 1.432 4.589 2.687 9.29 3.732 13.972 1.406 6.298 6.64 11.133 13.023 12.032l53.647 7.556c1.276.18 2.238 1.287 2.238 2.576z"/><path d="m256 164.5c32.485 0 62.834 17.521 79.204 45.725 2.079 3.583 6.671 4.8 10.251 2.722 3.583-2.08 4.801-6.669 2.722-10.251-19.043-32.813-54.364-53.196-92.177-53.196-58.724 0-106.5 47.776-106.5 106.5s47.776 106.5 106.5 106.5c58.725 0 106.5-47.776 106.5-106.5 0-6.05-.518-12.121-1.539-18.044-.703-4.082-4.576-6.818-8.665-6.117-4.081.704-6.82 4.583-6.116 8.665.876 5.084 1.32 10.298 1.32 15.496 0 16.884-4.602 32.711-12.61 46.303-12.415-16.613-29.714-28.81-49.19-35.02 11.079-8.782 18.206-22.344 18.206-37.547 0-26.416-21.49-47.907-47.906-47.907s-47.907 21.491-47.907 47.907c0 15.203 7.127 28.765 18.207 37.547-19.476 6.21-36.775 18.407-49.19 35.02-8.008-13.592-12.61-29.419-12.61-46.303 0-50.453 41.047-91.5 91.5-91.5zm-32.907 65.236c0-18.145 14.762-32.907 32.907-32.907s32.906 14.762 32.906 32.907-14.762 32.906-32.906 32.906c-18.145 0-32.907-14.762-32.907-32.906zm32.907 47.906c28.033 0 54.278 14.29 69.669 37.604-16.797 19.722-41.795 32.254-69.669 32.254s-52.872-12.532-69.669-32.254c15.392-23.314 41.636-37.604 69.669-37.604z"/></g></g></svg>